<svg xmlns="http://www.w3.org/2000/svg" xmlns:xlink="http://www.w3.org/1999/xlink" width="189.336" height="174.336" viewBox="0 0 189.336 174.336">
  <defs>
    <filter id="Rectangle_3" x="47.965" y="0" width="141.371" height="141.371" filterUnits="userSpaceOnUse">
      <feOffset input="SourceAlpha"/>
      <feGaussianBlur stdDeviation="5" result="blur"/>
      <feFlood flood-color="#ff1901"/>
      <feComposite operator="in" in2="blur"/>
      <feComposite in="SourceGraphic"/>
    </filter>
    <filter id="Rectangle_9" x="0" y="0.329" width="140.714" height="140.714" filterUnits="userSpaceOnUse">
      <feOffset input="SourceAlpha"/>
      <feGaussianBlur stdDeviation="5" result="blur-2"/>
      <feFlood flood-color="#1febfd"/>
      <feComposite operator="in" in2="blur-2"/>
      <feComposite in="SourceGraphic"/>
    </filter>
  </defs>
  <g id="Group_8" data-name="Group 8" transform="translate(-652.673 -438.027)">
    <g transform="matrix(1, 0, 0, 1, 652.67, 438.03)" filter="url(#Rectangle_3)">
      <path id="Rectangle_3-2" data-name="Rectangle 3" d="M0,0H138.811a1.5,1.5,0,0,1,1.5,1.5V15.69a1.5,1.5,0,0,1-1.5,1.5H0a0,0,0,0,1,0,0V0A0,0,0,0,1,0,0Z" transform="translate(62.96 114.22) rotate(-45)" fill="#ff1901"/>
    </g>
    <rect id="Rectangle_4" data-name="Rectangle 4" width="46.461" height="17.19" transform="translate(667.673 600.207) rotate(-45)" fill="#dedede"/>
    <rect id="Rectangle_5" data-name="Rectangle 5" width="51.107" height="16.726" transform="translate(790.542 564.397) rotate(45)" fill="#dedede"/>
    <g transform="matrix(1, 0, 0, 1, 652.67, 438.03)" filter="url(#Rectangle_9)">
      <path id="Rectangle_9-2" data-name="Rectangle 9" d="M0,0H138.347a1.5,1.5,0,0,1,1.5,1.5V15.226a1.5,1.5,0,0,1-1.5,1.5H0a0,0,0,0,1,0,0V0A0,0,0,0,1,0,0Z" transform="translate(113.89 126.04) rotate(-135)" fill="#1febfd"/>
    </g>
  </g>
</svg>
