<svg xmlns="http://www.w3.org/2000/svg" xmlns:xlink="http://www.w3.org/1999/xlink" width="149.043" height="134.043" viewBox="0 0 149.043 134.043">
  <defs>
    <filter id="Rectangle_3" x="35.836" y="0" width="113.207" height="113.207" filterUnits="userSpaceOnUse">
      <feOffset input="SourceAlpha"/>
      <feGaussianBlur stdDeviation="5" result="blur"/>
      <feFlood flood-color="#ff1901"/>
      <feComposite operator="in" in2="blur"/>
      <feComposite in="SourceGraphic"/>
    </filter>
    <filter id="Rectangle_9" x="0" y="0.245" width="112.717" height="112.717" filterUnits="userSpaceOnUse">
      <feOffset input="SourceAlpha"/>
      <feGaussianBlur stdDeviation="5" result="blur-2"/>
      <feFlood flood-color="#1febfd"/>
      <feComposite operator="in" in2="blur-2"/>
      <feComposite in="SourceGraphic"/>
    </filter>
  </defs>
  <g id="Group_8" data-name="Group 8" transform="translate(-652.673 -438.027)">
    <g transform="matrix(1, 0, 0, 1, 652.67, 438.03)" filter="url(#Rectangle_3)">
      <path id="Rectangle_3-2" data-name="Rectangle 3" d="M0,0H103.33a1.5,1.5,0,0,1,1.5,1.5v9.843a1.5,1.5,0,0,1-1.5,1.5H0a0,0,0,0,1,0,0V0A0,0,0,0,1,0,0Z" transform="translate(50.84 89.13) rotate(-45)" fill="#ff1901"/>
    </g>
    <rect id="Rectangle_4" data-name="Rectangle 4" width="34.712" height="12.843" transform="translate(667.673 562.988) rotate(-45)" fill="#dedede"/>
    <rect id="Rectangle_5" data-name="Rectangle 5" width="38.183" height="12.496" transform="translate(759.471 536.234) rotate(45)" fill="#dedede"/>
    <g transform="matrix(1, 0, 0, 1, 652.67, 438.03)" filter="url(#Rectangle_9)">
      <path id="Rectangle_9-2" data-name="Rectangle 9" d="M0,0H102.983a1.5,1.5,0,0,1,1.5,1.5V11a1.5,1.5,0,0,1-1.5,1.5H0a0,0,0,0,1,0,0V0A0,0,0,0,1,0,0Z" transform="translate(88.88 97.96) rotate(-135)" fill="#1febfd"/>
    </g>
  </g>
</svg>
