<svg xmlns="http://www.w3.org/2000/svg" xmlns:xlink="http://www.w3.org/1999/xlink" width="79" height="62" viewBox="0 0 79 62">
  <defs>
    <filter id="Rectangle_3" x="16" y="28" width="63" height="34" filterUnits="userSpaceOnUse">
      <feOffset input="SourceAlpha"/>
      <feGaussianBlur stdDeviation="5" result="blur"/>
      <feFlood flood-color="#ff1901"/>
      <feComposite operator="in" in2="blur"/>
      <feComposite in="SourceGraphic"/>
    </filter>
    <filter id="Rectangle_9" x="0" y="14" width="63" height="34" filterUnits="userSpaceOnUse">
      <feOffset input="SourceAlpha"/>
      <feGaussianBlur stdDeviation="5" result="blur-2"/>
      <feFlood flood-color="#1febfd"/>
      <feComposite operator="in" in2="blur-2"/>
      <feComposite in="SourceGraphic"/>
    </filter>
    <filter id="Rectangle_10" x="16" y="0" width="63" height="34" filterUnits="userSpaceOnUse">
      <feOffset input="SourceAlpha"/>
      <feGaussianBlur stdDeviation="5" result="blur-3"/>
      <feFlood flood-color="#2ff924"/>
      <feComposite operator="in" in2="blur-3"/>
      <feComposite in="SourceGraphic"/>
    </filter>
    <filter id="Rectangle_3-2" x="23.5" y="35.5" width="48" height="19" filterUnits="userSpaceOnUse">
      <feOffset input="SourceAlpha"/>
      <feGaussianBlur stdDeviation="2.5" result="blur-4"/>
      <feFlood flood-color="#ff1901"/>
      <feComposite operator="in" in2="blur-4"/>
      <feComposite in="SourceGraphic"/>
    </filter>
    <filter id="Path_1" x="7.5" y="21.5" width="48" height="19" filterUnits="userSpaceOnUse">
      <feOffset input="SourceAlpha"/>
      <feGaussianBlur stdDeviation="2.5" result="blur-5"/>
      <feFlood flood-color="#1febfd"/>
      <feComposite operator="in" in2="blur-5"/>
      <feComposite in="SourceGraphic"/>
    </filter>
    <filter id="Path_2" x="23.5" y="7.5" width="48" height="19" filterUnits="userSpaceOnUse">
      <feOffset input="SourceAlpha"/>
      <feGaussianBlur stdDeviation="2.5" result="blur-6"/>
      <feFlood flood-color="#2ff924"/>
      <feComposite operator="in" in2="blur-6"/>
      <feComposite in="SourceGraphic"/>
    </filter>
  </defs>
  <g id="Group_10" data-name="Group 10" transform="translate(-8 -16)">
    <g id="Group_1" data-name="Group 1" transform="translate(1193 -69)">
      <g transform="matrix(1, 0, 0, 1, -1185, 85)" filter="url(#Rectangle_3)">
        <path id="Rectangle_3-3" data-name="Rectangle 3" d="M0,0H31.5A1.5,1.5,0,0,1,33,1.5v1A1.5,1.5,0,0,1,31.5,4H0A0,0,0,0,1,0,4V0A0,0,0,0,1,0,0Z" transform="translate(31 43)" fill="#ff1901"/>
      </g>
      <rect id="Rectangle_4" data-name="Rectangle 4" width="11" height="4" transform="translate(-1170 128)" fill="#dedede"/>
      <rect id="Rectangle_5" data-name="Rectangle 5" width="12" height="4" transform="translate(-1133 114)" fill="#dedede"/>
      <rect id="Rectangle_6" data-name="Rectangle 6" width="11" height="4" transform="translate(-1170 100)" fill="#dedede"/>
      <g transform="matrix(1, 0, 0, 1, -1185, 85)" filter="url(#Rectangle_9)">
        <path id="Rectangle_9-2" data-name="Rectangle 9" d="M0,0H31.5A1.5,1.5,0,0,1,33,1.5v1A1.5,1.5,0,0,1,31.5,4H0A0,0,0,0,1,0,4V0A0,0,0,0,1,0,0Z" transform="translate(48 33) rotate(180)" fill="#1febfd"/>
      </g>
      <g transform="matrix(1, 0, 0, 1, -1185, 85)" filter="url(#Rectangle_10)">
        <path id="Rectangle_10-2" data-name="Rectangle 10" d="M0,0H31.5A1.5,1.5,0,0,1,33,1.5v1A1.5,1.5,0,0,1,31.5,4H0A0,0,0,0,1,0,4V0A0,0,0,0,1,0,0Z" transform="translate(31 15)" fill="#2ff924"/>
      </g>
    </g>
    <g id="Group_6" data-name="Group 6" transform="translate(1193 -69)">
      <g transform="matrix(1, 0, 0, 1, -1185, 85)" filter="url(#Rectangle_3-2)">
        <path id="Rectangle_3-4" data-name="Rectangle 3" d="M0,0H31.5A1.5,1.5,0,0,1,33,1.5v1A1.5,1.5,0,0,1,31.5,4H0A0,0,0,0,1,0,4V0A0,0,0,0,1,0,0Z" transform="translate(31 43)" fill="#ff1901"/>
      </g>
      <rect id="Rectangle_4-2" data-name="Rectangle 4" width="11" height="4" transform="translate(-1170 128)" fill="#dedede"/>
      <rect id="Rectangle_5-2" data-name="Rectangle 5" width="12" height="4" transform="translate(-1133 114)" fill="#dedede"/>
      <rect id="Rectangle_6-2" data-name="Rectangle 6" width="11" height="4" transform="translate(-1170 100)" fill="#dedede"/>
      <g transform="matrix(1, 0, 0, 1, -1185, 85)" filter="url(#Path_1)">
        <path id="Path_1-2" data-name="Path 1" d="M0,0H31.5A1.5,1.5,0,0,1,33,1.5v1A1.5,1.5,0,0,1,31.5,4H0Z" transform="translate(48 33) rotate(180)" fill="#1febfd"/>
      </g>
      <g transform="matrix(1, 0, 0, 1, -1185, 85)" filter="url(#Path_2)">
        <path id="Path_2-2" data-name="Path 2" d="M0,0H31.5A1.5,1.5,0,0,1,33,1.5v1A1.5,1.5,0,0,1,31.5,4H0Z" transform="translate(31 15)" fill="#2ff924"/>
      </g>
    </g>
  </g>
</svg>
